<svg width="15" height="15" viewBox="0 0 15 15" fill="none" xmlns="http://www.w3.org/2000/svg">
<g clip-path="url(#clip0_3_8516)">
<g clip-path="url(#clip1_3_8516)">
<path d="M1.75781 1.17188H2.46094V0H3.63281V1.17188H11.3672V0H12.5391V1.17188H13.2422C14.2114 1.17188 15 1.96043 15 2.92969V13.2422C15 14.2114 14.2114 15 13.2422 15H1.75781C0.788555 15 0 14.2114 0 13.2422V2.92969C0 1.96043 0.788555 1.17188 1.75781 1.17188ZM1.17188 13.2422C1.17188 13.5653 1.43473 13.8281 1.75781 13.8281H13.2422C13.5653 13.8281 13.8281 13.5653 13.8281 13.2422V5.50781H1.17188V13.2422ZM1.17188 4.33594H13.8281V2.92969C13.8281 2.6066 13.5653 2.34375 13.2422 2.34375H12.5391V3.51562H11.3672V2.34375H3.63281V3.51562H2.46094V2.34375H1.75781C1.43473 2.34375 1.17188 2.6066 1.17188 2.92969V4.33594Z" fill="#4198C5"/>
</g>
</g>
<defs>
<clipPath id="clip0_3_8516">
<rect width="15" height="15" fill="white"/>
</clipPath>
<clipPath id="clip1_3_8516">
<rect width="15" height="15" fill="white" transform="matrix(-1 0 0 1 15 0)"/>
</clipPath>
</defs>
</svg>
