<svg width="15" height="15" viewBox="0 0 15 15" fill="none" xmlns="http://www.w3.org/2000/svg">
<g clip-path="url(#clip0_3_8523)">
<path d="M9.6377 8.55969L7.96457 7.30484V4.7487C7.96457 4.49169 7.75682 4.28394 7.4998 4.28394C7.24278 4.28394 7.03503 4.49169 7.03503 4.7487V7.53725C7.03503 7.68364 7.10382 7.82169 7.22094 7.90906L9.07996 9.30333C9.1636 9.36608 9.26122 9.39629 9.35835 9.39629C9.5001 9.39629 9.63953 9.33261 9.73063 9.20991C9.88496 9.00493 9.84313 8.71353 9.6377 8.55969Z" fill="#4198C5"/>
<path d="M7.5 1.5C4.1914 1.5 1.5 4.1914 1.5 7.5C1.5 10.8086 4.1914 13.5 7.5 13.5C10.8086 13.5 13.5 10.8086 13.5 7.5C13.5 4.1914 10.8086 1.5 7.5 1.5ZM7.5 12.5705C4.70449 12.5705 2.42951 10.2955 2.42951 7.5C2.42951 4.70449 4.70449 2.42951 7.5 2.42951C10.296 2.42951 12.5705 4.70449 12.5705 7.5C12.5705 10.2955 10.2955 12.5705 7.5 12.5705Z" fill="#4198C5"/>
</g>
<defs>
<clipPath id="clip0_3_8523">
<rect width="12" height="12" fill="white" transform="translate(1.5 1.5)"/>
</clipPath>
</defs>
</svg>
