<svg width="15" height="11" viewBox="0 0 15 11" fill="none" xmlns="http://www.w3.org/2000/svg">
<path d="M14.7461 1.82974C14.5881 1.73209 14.3909 1.72317 14.2248 1.80617L10.7143 3.56169V2.28561C10.7143 1.39801 9.99473 0.678467 9.10713 0.678467H1.60714C0.719541 0.678467 0 1.39801 0 2.28561V8.71418C0 9.60178 0.719541 10.3213 1.60714 10.3213H9.10713C9.99473 10.3213 10.7143 9.60178 10.7143 8.71418V7.4381L14.2248 9.19632C14.4895 9.32856 14.8112 9.22124 14.9435 8.95656C14.9811 8.88132 15.0005 8.79827 15 8.71418V2.28561C15.0001 2.09991 14.904 1.92742 14.7461 1.82974ZM9.64285 8.71418C9.64285 9.01005 9.403 9.2499 9.10713 9.2499H1.60714C1.31126 9.2499 1.07142 9.01005 1.07142 8.71418V2.28561C1.07142 1.98973 1.31126 1.74988 1.60714 1.74988H9.10713C9.403 1.74988 9.64285 1.98973 9.64285 2.28561V8.71418ZM13.9286 7.84742L10.7143 6.24027V4.75957L13.9286 3.15243V7.84742Z" fill="#4198C5"/>
</svg>
