<svg width="15" height="15" viewBox="0 0 15 15" fill="none" xmlns="http://www.w3.org/2000/svg">
<g clip-path="url(#clip0_3_8505)">
<path d="M14.7461 3.82974C14.5881 3.73209 14.3909 3.72317 14.2248 3.80617L10.7143 5.56169V4.28561C10.7143 3.39801 9.99473 2.67847 9.10713 2.67847H1.60714C0.719541 2.67847 0 3.39801 0 4.28561V10.7142C0 11.6018 0.719541 12.3213 1.60714 12.3213H9.10713C9.99473 12.3213 10.7143 11.6018 10.7143 10.7142V9.4381L14.2248 11.1963C14.4895 11.3286 14.8112 11.2212 14.9435 10.9566C14.9811 10.8813 15.0005 10.7983 15 10.7142V4.28561C15.0001 4.09991 14.904 3.92742 14.7461 3.82974ZM9.64285 10.7142C9.64285 11.0101 9.403 11.2499 9.10713 11.2499H1.60714C1.31126 11.2499 1.07142 11.0101 1.07142 10.7142V4.28561C1.07142 3.98973 1.31126 3.74988 1.60714 3.74988H9.10713C9.403 3.74988 9.64285 3.98973 9.64285 4.28561V10.7142ZM13.9286 9.84742L10.7143 8.24027V6.75957L13.9286 5.15243V9.84742Z" fill="#4198C5"/>
<path d="M5.3571 5.35718C4.17362 5.35718 3.21423 6.31657 3.21423 7.50004C3.21423 8.68352 4.17362 9.64291 5.3571 9.64291C6.54058 9.64291 7.49997 8.68352 7.49997 7.50004C7.49997 6.31657 6.54055 5.35718 5.3571 5.35718ZM5.3571 8.57146C4.76538 8.57146 4.28568 8.09176 4.28568 7.50004C4.28568 6.90832 4.76538 6.42863 5.3571 6.42863C5.94882 6.42863 6.42852 6.90832 6.42852 7.50004C6.42852 8.09176 5.94882 8.57146 5.3571 8.57146Z" fill="#4198C5"/>
</g>
<defs>
<clipPath id="clip0_3_8505">
<rect width="15" height="15" fill="white"/>
</clipPath>
</defs>
</svg>
